<svg xmlns="http://www.w3.org/2000/svg" width="300" height="326" viewBox="0 0 300 326" fill="none">
    <path
      opacity="0.5"
      fillRule="evenodd"
      clipRule="evenodd"
      d="M176.11 49.8754C162.654 62.9454 157.109 81.0212 159.444 98.2289C159.477 98.467 159.576 99.1544 159.653 99.6929C159.692 99.9585 159.725 100.188 159.742 100.31C159.901 101.43 159.911 101.54 159.998 102.657C161.385 119.739 155.801 136.391 143.059 149.134C130.307 161.886 113.353 167.177 96.6852 166.043C95.3915 165.956 94.1105 165.776 92.8781 165.603L92.7188 165.578C92.4554 165.541 92.3211 165.524 92.0605 165.489C74.8843 163.184 56.86 168.74 43.8105 182.175C22.1921 204.423 22.7094 240.656 44.9382 262.296C67.1187 283.887 102.604 283.704 124.56 261.747C137.835 248.472 142.842 230.521 140.482 212.958C138.046 194.829 143.478 176.727 157.065 163.14C170.664 149.541 189.19 144.531 206.864 146.555C224.269 148.552 242.396 143.89 255.661 130.625C277.618 108.669 277.801 73.1831 256.21 51.0032C234.57 28.7744 198.358 28.2571 176.11 49.8754ZM92.1957 164.498C92.4622 164.535 92.5328 164.548 92.8 164.586L92.9993 164.61C94.2432 164.785 95.4951 164.96 96.7531 165.045C113.165 166.162 129.826 160.953 142.351 148.427C154.877 135.901 160.366 119.54 159.002 102.735C158.916 101.637 158.908 101.549 158.752 100.451C158.735 100.333 158.703 100.108 158.665 99.8458C158.587 99.3049 158.486 98.6054 158.453 98.3634C156.077 80.8558 161.72 62.4594 175.414 49.1581C198.057 27.1548 234.902 27.6817 256.927 50.3056C278.899 72.877 278.713 108.988 256.369 131.332C242.85 144.851 224.402 149.574 206.75 147.548C189.335 145.554 171.125 150.494 157.772 163.847C144.419 177.2 139.076 194.987 141.473 212.825C143.871 230.663 138.786 248.936 125.267 262.454C102.923 284.798 66.8126 284.985 44.2406 263.012C21.6168 240.988 21.0898 204.123 43.0931 181.479C56.3738 167.805 74.7189 162.152 92.1957 164.498Z"
      fill="white"
    />
</svg>