<svg xmlns="http://www.w3.org/2000/svg" width="301" height="326" viewBox="0 0 301 326" fill="none">
<path fill-rule="evenodd" clip-rule="evenodd" d="M300.165 0.778809H0.895691V325.564H300.165V0.778809ZM158.953 98.8634C156.577 81.3558 162.22 62.9594 175.914 49.6581H175.893C198.537 27.6548 235.402 28.1817 257.427 50.8057C279.399 73.377 279.213 109.488 256.869 131.832C243.35 145.351 224.902 150.074 207.25 148.048C189.835 146.054 171.625 150.994 158.272 164.347C144.919 177.7 139.576 195.487 141.973 213.325C144.371 231.163 139.286 249.436 125.767 262.954C103.423 285.298 67.3126 285.485 44.7406 263.512C22.1168 241.488 21.5898 204.622 43.5931 181.979C56.8738 168.305 75.2189 162.652 92.6957 164.998C92.9632 165.035 93.2311 165.072 93.4993 165.11C94.7433 165.285 95.9949 165.46 97.2531 165.545C113.665 166.662 130.326 161.453 142.851 148.927C155.377 136.401 160.866 120.04 159.502 103.235C159.416 102.137 159.26 101.039 159.104 99.9414C159.053 99.5821 159.002 99.2228 158.953 98.8634Z" fill="white"/>
</svg>